<?xml version="1.0" encoding="UTF-8"?><svg id="Camada_1" xmlns="http://www.w3.org/2000/svg" viewBox="0 0 615.5 322.19"><defs><style>.cls-1{font-family:SinhalaMN, 'Sinhala MN';font-size:83.44px;}.cls-1,.cls-2{fill:#fdf7ff;}.cls-3{fill:none;stroke:#fdf7ff;stroke-miterlimit:10;}.cls-4{letter-spacing:0em;}.cls-5{letter-spacing:-.08em;}.cls-2{stroke-width:0px;}.cls-6{letter-spacing:0em;}</style></defs><text class="cls-1" transform="translate(215.39 130.49)"><tspan class="cls-5" x="0" y="0">Y</tspan><tspan class="cls-4" x="45.47" y="0">our</tspan><tspan x="-47.83" y="100.13">Libra</tspan><tspan class="cls-6" x="151.6" y="100.13">r</tspan><tspan x="188.07" y="100.13">y</tspan></text><ellipse class="cls-3" cx="307.75" cy="161.09" rx="167.55" ry="68.25" transform="translate(-29.88 79.43) rotate(-14.03)"/><path class="cls-2" d="M498.39,104.85c-28.78,7.97-34.27,14.43-41.04,48.29-6.77-33.87-12.26-40.33-41.04-48.29,28.78-7.97,34.27-14.43,41.04-48.29,6.77,33.87,12.26,40.33,41.04,48.29Z"/><path class="cls-2" d="M437.9,141.11c-14.39,3.98-17.13,7.21-20.52,24.15-3.38-16.93-6.13-20.16-20.52-24.15,14.39-3.98,17.13-7.21,20.52-24.15,3.38,16.93,6.13,20.16,20.52,24.15Z"/></svg>